<?xml version="1.0"?>
<svg xmlns="http://www.w3.org/2000/svg" height="512px" viewBox="0 0 512 512" width="512px">
    <path d="m452 0h-392c-33.085938 0-60 26.914062-60 60v392c0 33.085938 26.914062 60 60 60h392c33.085938 0 60-26.914062 60-60v-392c0-33.085938-26.914062-60-60-60zm20 452c0 11.027344-8.972656 20-20 20h-392c-11.027344 0-20-8.972656-20-20v-392c0-11.027344 8.972656-20 20-20h392c11.027344 0 20 8.972656 20 20zm0 0" fill="#ff9100"/>
    <text x="256" y="256" text-anchor="middle" dominant-baseline="central" font-family="-apple-system, BlinkMacSystemFont, 'Segoe UI', Roboto, Oxygen-Sans, Ubuntu, Cantarell, 'Helvetica Neue', sans-serif" font-size="300" fill="#ff9100">v2</text>
</svg>
